<svg version="1.1" xmlns="http://www.w3.org/2000/svg" xmlns:xlink="http://www.w3.org/1999/xlink" width="358.63134765625" height="269"><defs/><g><text fill="#eeeeee" stroke="none" font-family="Arial" font-size="24px" font-style="normal" font-weight="normal" text-decoration="none" x="0" y="0">UNREGISTERED</text><text fill="#eeeeee" stroke="none" font-family="Arial" font-size="24px" font-style="normal" font-weight="normal" text-decoration="none" x="0" y="30">UNREGISTERED</text><text fill="#eeeeee" stroke="none" font-family="Arial" font-size="24px" font-style="normal" font-weight="normal" text-decoration="none" x="0" y="60">UNREGISTERED</text><text fill="#eeeeee" stroke="none" font-family="Arial" font-size="24px" font-style="normal" font-weight="normal" text-decoration="none" x="0" y="90">UNREGISTERED</text><text fill="#eeeeee" stroke="none" font-family="Arial" font-size="24px" font-style="normal" font-weight="normal" text-decoration="none" x="0" y="120">UNREGISTERED</text><text fill="#eeeeee" stroke="none" font-family="Arial" font-size="24px" font-style="normal" font-weight="normal" text-decoration="none" x="0" y="150">UNREGISTERED</text><text fill="#eeeeee" stroke="none" font-family="Arial" font-size="24px" font-style="normal" font-weight="normal" text-decoration="none" x="0" y="180">UNREGISTERED</text><text fill="#eeeeee" stroke="none" font-family="Arial" font-size="24px" font-style="normal" font-weight="normal" text-decoration="none" x="0" y="210">UNREGISTERED</text><text fill="#eeeeee" stroke="none" font-family="Arial" font-size="24px" font-style="normal" font-weight="normal" text-decoration="none" x="0" y="240">UNREGISTERED</text><text fill="#eeeeee" stroke="none" font-family="Arial" font-size="24px" font-style="normal" font-weight="normal" text-decoration="none" x="200" y="0">UNREGISTERED</text><text fill="#eeeeee" stroke="none" font-family="Arial" font-size="24px" font-style="normal" font-weight="normal" text-decoration="none" x="200" y="30">UNREGISTERED</text><text fill="#eeeeee" stroke="none" font-family="Arial" font-size="24px" font-style="normal" font-weight="normal" text-decoration="none" x="200" y="60">UNREGISTERED</text><text fill="#eeeeee" stroke="none" font-family="Arial" font-size="24px" font-style="normal" font-weight="normal" text-decoration="none" x="200" y="90">UNREGISTERED</text><text fill="#eeeeee" stroke="none" font-family="Arial" font-size="24px" font-style="normal" font-weight="normal" text-decoration="none" x="200" y="120">UNREGISTERED</text><text fill="#eeeeee" stroke="none" font-family="Arial" font-size="24px" font-style="normal" font-weight="normal" text-decoration="none" x="200" y="150">UNREGISTERED</text><text fill="#eeeeee" stroke="none" font-family="Arial" font-size="24px" font-style="normal" font-weight="normal" text-decoration="none" x="200" y="180">UNREGISTERED</text><text fill="#eeeeee" stroke="none" font-family="Arial" font-size="24px" font-style="normal" font-weight="normal" text-decoration="none" x="200" y="210">UNREGISTERED</text><text fill="#eeeeee" stroke="none" font-family="Arial" font-size="24px" font-style="normal" font-weight="normal" text-decoration="none" x="200" y="240">UNREGISTERED</text><g transform="translate(-10,-10) scale(1,1)"><rect fill="#C0C0C0" stroke="none" x="163.677978515625" y="27" width="19.599999999999994" height="15" opacity="0.2"/></g><g transform="translate(-10,-10) scale(1,1)"><rect fill="#C0C0C0" stroke="none" x="163.677978515625" y="41" width="49" height="25" opacity="0.2"/></g><g transform="translate(-10,-10) scale(1,1)"><rect fill="#ffffff" stroke="none" x="156.677978515625" y="35" width="49" height="24"/></g><g transform="translate(-10,-10) scale(1,1)"><path fill="none" stroke="#000000" d="M 156.677978515625 35 L 205.677978515625 35 L 205.677978515625 59 L 156.677978515625 59 L 156.677978515625 35 Z Z" stroke-miterlimit="10"/></g><g transform="translate(-10,-10) scale(1,1)"><rect fill="#ffffff" stroke="none" x="156.677978515625" y="20" width="19.599999999999994" height="15"/></g><g transform="translate(-10,-10) scale(1,1)"><path fill="none" stroke="#000000" d="M 156.677978515625 20 L 176.277978515625 20 L 176.277978515625 35 L 156.677978515625 35 L 156.677978515625 20 Z Z" stroke-miterlimit="10"/></g><g transform="translate(-10,-10) scale(1,1)"><rect fill="#ffffff" stroke="none" x="156.677978515625" y="34" width="49" height="25"/></g><g transform="translate(-10,-10) scale(1,1)"><path fill="none" stroke="#000000" d="M 156.677978515625 34 L 205.677978515625 34 L 205.677978515625 59 L 156.677978515625 59 L 156.677978515625 34 Z Z" stroke-miterlimit="10"/></g><g transform="translate(-10,-10) scale(1,1)"><g><path fill="none" stroke="none"/><text fill="#000000" stroke="none" font-family="Arial" font-size="13px" font-style="normal" font-weight="bold" text-decoration="none" x="168.89208984375" y="54.5">tech</text></g></g><g transform="translate(-10,-10) scale(1,1)"><rect fill="#C0C0C0" stroke="none" x="160.20751953125" y="97" width="24.97382812500001" height="15" opacity="0.2"/></g><g transform="translate(-10,-10) scale(1,1)"><rect fill="#C0C0C0" stroke="none" x="160.20751953125" y="111" width="62.4345703125" height="25" opacity="0.2"/></g><g transform="translate(-10,-10) scale(1,1)"><rect fill="#ffffff" stroke="none" x="153.20751953125" y="105" width="62.4345703125" height="24"/></g><g transform="translate(-10,-10) scale(1,1)"><path fill="none" stroke="#000000" d="M 153.20751953125 105 L 215.64208984375 105 L 215.64208984375 129 L 153.20751953125 129 L 153.20751953125 105 Z Z" stroke-miterlimit="10"/></g><g transform="translate(-10,-10) scale(1,1)"><rect fill="#ffffff" stroke="none" x="153.20751953125" y="90" width="24.97382812500001" height="15"/></g><g transform="translate(-10,-10) scale(1,1)"><path fill="none" stroke="#000000" d="M 153.20751953125 90 L 178.18134765625 90 L 178.18134765625 105 L 153.20751953125 105 L 153.20751953125 90 Z Z" stroke-miterlimit="10"/></g><g transform="translate(-10,-10) scale(1,1)"><rect fill="#ffffff" stroke="none" x="153.20751953125" y="104" width="62.4345703125" height="25"/></g><g transform="translate(-10,-10) scale(1,1)"><path fill="none" stroke="#000000" d="M 153.20751953125 104 L 215.64208984375 104 L 215.64208984375 129 L 153.20751953125 129 L 153.20751953125 104 Z Z" stroke-miterlimit="10"/></g><g transform="translate(-10,-10) scale(1,1)"><g><path fill="none" stroke="none"/><text fill="#000000" stroke="none" font-family="Arial" font-size="13px" font-style="normal" font-weight="bold" text-decoration="none" x="159.849853515625" y="124.5">noetzold</text></g></g><g transform="translate(-10,-10) scale(1,1)"><rect fill="#C0C0C0" stroke="none" x="152.40625" y="167" width="32.507226562499994" height="15" opacity="0.2"/></g><g transform="translate(-10,-10) scale(1,1)"><rect fill="#C0C0C0" stroke="none" x="152.40625" y="181" width="81.26806640625" height="25" opacity="0.2"/></g><g transform="translate(-10,-10) scale(1,1)"><rect fill="#ffffff" stroke="none" x="145.40625" y="175" width="81.26806640625" height="24"/></g><g transform="translate(-10,-10) scale(1,1)"><path fill="none" stroke="#000000" d="M 145.40625 175 L 226.67431640625 175 L 226.67431640625 199 L 145.40625 199 L 145.40625 175 Z Z" stroke-miterlimit="10"/></g><g transform="translate(-10,-10) scale(1,1)"><rect fill="#ffffff" stroke="none" x="145.40625" y="160" width="32.507226562499994" height="15"/></g><g transform="translate(-10,-10) scale(1,1)"><path fill="none" stroke="#000000" d="M 145.40625 160 L 177.9134765625 160 L 177.9134765625 175 L 145.40625 175 L 145.40625 160 Z Z" stroke-miterlimit="10"/></g><g transform="translate(-10,-10) scale(1,1)"><rect fill="#ffffff" stroke="none" x="145.40625" y="174" width="81.26806640625" height="25"/></g><g transform="translate(-10,-10) scale(1,1)"><path fill="none" stroke="#000000" d="M 145.40625 174 L 226.67431640625 174 L 226.67431640625 199 L 145.40625 199 L 145.40625 174 Z Z" stroke-miterlimit="10"/></g><g transform="translate(-10,-10) scale(1,1)"><g><path fill="none" stroke="none"/><text fill="#000000" stroke="none" font-family="Arial" font-size="13px" font-style="normal" font-weight="bold" text-decoration="none" x="152.086669921875" y="194.5">ecommerce</text></g></g><g transform="translate(-10,-10) scale(1,1)"><rect fill="#C0C0C0" stroke="none" x="27" y="237" width="24.113085937500003" height="15" opacity="0.2"/></g><g transform="translate(-10,-10) scale(1,1)"><rect fill="#C0C0C0" stroke="none" x="27" y="251" width="60.28271484375" height="25" opacity="0.2"/></g><g transform="translate(-10,-10) scale(1,1)"><rect fill="#ffffff" stroke="none" x="20" y="245" width="60.28271484375" height="24"/></g><g transform="translate(-10,-10) scale(1,1)"><path fill="none" stroke="#000000" d="M 20 245 L 80.28271484375 245 L 80.28271484375 269 L 20 269 L 20 245 Z Z" stroke-miterlimit="10"/></g><g transform="translate(-10,-10) scale(1,1)"><rect fill="#ffffff" stroke="none" x="20" y="230" width="24.113085937500003" height="15"/></g><g transform="translate(-10,-10) scale(1,1)"><path fill="none" stroke="#000000" d="M 20 230 L 44.1130859375 230 L 44.1130859375 245 L 20 245 L 20 230 Z Z" stroke-miterlimit="10"/></g><g transform="translate(-10,-10) scale(1,1)"><rect fill="#ffffff" stroke="none" x="20" y="244" width="60.28271484375" height="25"/></g><g transform="translate(-10,-10) scale(1,1)"><path fill="none" stroke="#000000" d="M 20 244 L 80.28271484375 244 L 80.28271484375 269 L 20 269 L 20 244 Z Z" stroke-miterlimit="10"/></g><g transform="translate(-10,-10) scale(1,1)"><g><path fill="none" stroke="none"/><text fill="#000000" stroke="none" font-family="Arial" font-size="13px" font-style="normal" font-weight="bold" text-decoration="none" x="27.016845703125" y="264.5">controle</text></g></g><g transform="translate(-10,-10) scale(1,1)"><rect fill="#C0C0C0" stroke="none" x="112.24609375" y="237" width="27.29960937499999" height="15" opacity="0.2"/></g><g transform="translate(-10,-10) scale(1,1)"><rect fill="#C0C0C0" stroke="none" x="112.24609375" y="251" width="68.2490234375" height="25" opacity="0.2"/></g><g transform="translate(-10,-10) scale(1,1)"><rect fill="#ffffff" stroke="none" x="105.24609375" y="245" width="68.2490234375" height="24"/></g><g transform="translate(-10,-10) scale(1,1)"><path fill="none" stroke="#000000" d="M 105.24609375 245 L 173.4951171875 245 L 173.4951171875 269 L 105.24609375 269 L 105.24609375 245 Z Z" stroke-miterlimit="10"/></g><g transform="translate(-10,-10) scale(1,1)"><rect fill="#ffffff" stroke="none" x="105.24609375" y="230" width="27.29960937499999" height="15"/></g><g transform="translate(-10,-10) scale(1,1)"><path fill="none" stroke="#000000" d="M 105.24609375 230 L 132.545703125 230 L 132.545703125 245 L 105.24609375 245 L 105.24609375 230 Z Z" stroke-miterlimit="10"/></g><g transform="translate(-10,-10) scale(1,1)"><rect fill="#ffffff" stroke="none" x="105.24609375" y="244" width="68.2490234375" height="25"/></g><g transform="translate(-10,-10) scale(1,1)"><path fill="none" stroke="#000000" d="M 105.24609375 244 L 173.4951171875 244 L 173.4951171875 269 L 105.24609375 269 L 105.24609375 244 Z Z" stroke-miterlimit="10"/></g><g transform="translate(-10,-10) scale(1,1)"><g><path fill="none" stroke="none"/><text fill="#000000" stroke="none" font-family="Arial" font-size="13px" font-style="normal" font-weight="bold" text-decoration="none" x="112.275634765625" y="264.5">converter</text></g></g><g transform="translate(-10,-10) scale(1,1)"><rect fill="#C0C0C0" stroke="none" x="205.6552734375" y="237" width="24.9814453125" height="15" opacity="0.2"/></g><g transform="translate(-10,-10) scale(1,1)"><rect fill="#C0C0C0" stroke="none" x="205.6552734375" y="251" width="62.45361328125" height="25" opacity="0.2"/></g><g transform="translate(-10,-10) scale(1,1)"><rect fill="#ffffff" stroke="none" x="198.6552734375" y="245" width="62.45361328125" height="24"/></g><g transform="translate(-10,-10) scale(1,1)"><path fill="none" stroke="#000000" d="M 198.6552734375 245 L 261.10888671875 245 L 261.10888671875 269 L 198.6552734375 269 L 198.6552734375 245 Z Z" stroke-miterlimit="10"/></g><g transform="translate(-10,-10) scale(1,1)"><rect fill="#ffffff" stroke="none" x="198.6552734375" y="230" width="24.9814453125" height="15"/></g><g transform="translate(-10,-10) scale(1,1)"><path fill="none" stroke="#000000" d="M 198.6552734375 230 L 223.63671875 230 L 223.63671875 245 L 198.6552734375 245 L 198.6552734375 230 Z Z" stroke-miterlimit="10"/></g><g transform="translate(-10,-10) scale(1,1)"><rect fill="#ffffff" stroke="none" x="198.6552734375" y="244" width="62.45361328125" height="25"/></g><g transform="translate(-10,-10) scale(1,1)"><path fill="none" stroke="#000000" d="M 198.6552734375 244 L 261.10888671875 244 L 261.10888671875 269 L 198.6552734375 269 L 198.6552734375 244 Z Z" stroke-miterlimit="10"/></g><g transform="translate(-10,-10) scale(1,1)"><g><path fill="none" stroke="none"/><text fill="#000000" stroke="none" font-family="Arial" font-size="13px" font-style="normal" font-weight="bold" text-decoration="none" x="205.3134765625" y="264.5">modelos</text></g></g><g transform="translate(-10,-10) scale(1,1)"><rect fill="#C0C0C0" stroke="none" x="291.1552734375" y="237" width="33.64980468750002" height="15" opacity="0.2"/></g><g transform="translate(-10,-10) scale(1,1)"><rect fill="#C0C0C0" stroke="none" x="291.1552734375" y="251" width="84.12451171875" height="25" opacity="0.2"/></g><g transform="translate(-10,-10) scale(1,1)"><rect fill="#ffffff" stroke="none" x="284.1552734375" y="245" width="84.12451171875" height="24"/></g><g transform="translate(-10,-10) scale(1,1)"><path fill="none" stroke="#000000" d="M 284.1552734375 245 L 368.27978515625 245 L 368.27978515625 269 L 284.1552734375 269 L 284.1552734375 245 Z Z" stroke-miterlimit="10"/></g><g transform="translate(-10,-10) scale(1,1)"><rect fill="#ffffff" stroke="none" x="284.1552734375" y="230" width="33.64980468750002" height="15"/></g><g transform="translate(-10,-10) scale(1,1)"><path fill="none" stroke="#000000" d="M 284.1552734375 230 L 317.805078125 230 L 317.805078125 245 L 284.1552734375 245 L 284.1552734375 230 Z Z" stroke-miterlimit="10"/></g><g transform="translate(-10,-10) scale(1,1)"><rect fill="#ffffff" stroke="none" x="284.1552734375" y="244" width="84.12451171875" height="25"/></g><g transform="translate(-10,-10) scale(1,1)"><path fill="none" stroke="#000000" d="M 284.1552734375 244 L 368.27978515625 244 L 368.27978515625 269 L 284.1552734375 269 L 284.1552734375 244 Z Z" stroke-miterlimit="10"/></g><g transform="translate(-10,-10) scale(1,1)"><g><path fill="none" stroke="none"/><text fill="#000000" stroke="none" font-family="Arial" font-size="13px" font-style="normal" font-weight="bold" text-decoration="none" x="292.619384765625" y="264.5">repositorios</text></g></g><g transform="translate(-10,-10) scale(1,1)"><rect fill="#C0C0C0" stroke="none" x="254.94970703125" y="27" width="19.600000000000023" height="15" opacity="0.2"/></g><g transform="translate(-10,-10) scale(1,1)"><rect fill="#C0C0C0" stroke="none" x="254.94970703125" y="41" width="49" height="25" opacity="0.2"/></g><g transform="translate(-10,-10) scale(1,1)"><rect fill="#ffffff" stroke="none" x="247.94970703125" y="35" width="49" height="24"/></g><g transform="translate(-10,-10) scale(1,1)"><path fill="none" stroke="#000000" d="M 247.94970703125 35 L 296.94970703125 35 L 296.94970703125 59 L 247.94970703125 59 L 247.94970703125 35 Z Z" stroke-miterlimit="10"/></g><g transform="translate(-10,-10) scale(1,1)"><rect fill="#ffffff" stroke="none" x="247.94970703125" y="20" width="19.600000000000023" height="15"/></g><g transform="translate(-10,-10) scale(1,1)"><path fill="none" stroke="#000000" d="M 247.94970703125 20 L 267.54970703125 20 L 267.54970703125 35 L 247.94970703125 35 L 247.94970703125 20 Z Z" stroke-miterlimit="10"/></g><g transform="translate(-10,-10) scale(1,1)"><rect fill="#ffffff" stroke="none" x="247.94970703125" y="34" width="49" height="25"/></g><g transform="translate(-10,-10) scale(1,1)"><path fill="none" stroke="#000000" d="M 247.94970703125 34 L 296.94970703125 34 L 296.94970703125 59 L 247.94970703125 59 L 247.94970703125 34 Z Z" stroke-miterlimit="10"/></g><g transform="translate(-10,-10) scale(1,1)"><g><path fill="none" stroke="none"/><text fill="#000000" stroke="none" font-family="Arial" font-size="13px" font-style="normal" font-weight="bold" text-decoration="none" x="260.170166015625" y="54.5">com</text></g></g><g transform="translate(-10,-10) scale(1,1)"><rect fill="#C0C0C0" stroke="none" x="254.94970703125" y="97" width="19.600000000000023" height="15" opacity="0.2"/></g><g transform="translate(-10,-10) scale(1,1)"><rect fill="#C0C0C0" stroke="none" x="254.94970703125" y="111" width="49" height="25" opacity="0.2"/></g><g transform="translate(-10,-10) scale(1,1)"><rect fill="#ffffff" stroke="none" x="247.94970703125" y="105" width="49" height="24"/></g><g transform="translate(-10,-10) scale(1,1)"><path fill="none" stroke="#000000" d="M 247.94970703125 105 L 296.94970703125 105 L 296.94970703125 129 L 247.94970703125 129 L 247.94970703125 105 Z Z" stroke-miterlimit="10"/></g><g transform="translate(-10,-10) scale(1,1)"><rect fill="#ffffff" stroke="none" x="247.94970703125" y="90" width="19.600000000000023" height="15"/></g><g transform="translate(-10,-10) scale(1,1)"><path fill="none" stroke="#000000" d="M 247.94970703125 90 L 267.54970703125 90 L 267.54970703125 105 L 247.94970703125 105 L 247.94970703125 90 Z Z" stroke-miterlimit="10"/></g><g transform="translate(-10,-10) scale(1,1)"><rect fill="#ffffff" stroke="none" x="247.94970703125" y="104" width="49" height="25"/></g><g transform="translate(-10,-10) scale(1,1)"><path fill="none" stroke="#000000" d="M 247.94970703125 104 L 296.94970703125 104 L 296.94970703125 129 L 247.94970703125 129 L 247.94970703125 104 Z Z" stroke-miterlimit="10"/></g><g transform="translate(-10,-10) scale(1,1)"><g><path fill="none" stroke="none"/><text fill="#000000" stroke="none" font-family="Arial" font-size="13px" font-style="normal" font-weight="bold" text-decoration="none" x="261.9697265625" y="124.5">dev</text></g></g><g transform="translate(-10,-10) scale(1,1)"><rect fill="#C0C0C0" stroke="none" x="254.94970703125" y="167" width="19.600000000000023" height="15" opacity="0.2"/></g><g transform="translate(-10,-10) scale(1,1)"><rect fill="#C0C0C0" stroke="none" x="254.94970703125" y="181" width="49" height="25" opacity="0.2"/></g><g transform="translate(-10,-10) scale(1,1)"><rect fill="#ffffff" stroke="none" x="247.94970703125" y="175" width="49" height="24"/></g><g transform="translate(-10,-10) scale(1,1)"><path fill="none" stroke="#000000" d="M 247.94970703125 175 L 296.94970703125 175 L 296.94970703125 199 L 247.94970703125 199 L 247.94970703125 175 Z Z" stroke-miterlimit="10"/></g><g transform="translate(-10,-10) scale(1,1)"><rect fill="#ffffff" stroke="none" x="247.94970703125" y="160" width="19.600000000000023" height="15"/></g><g transform="translate(-10,-10) scale(1,1)"><path fill="none" stroke="#000000" d="M 247.94970703125 160 L 267.54970703125 160 L 267.54970703125 175 L 247.94970703125 175 L 247.94970703125 160 Z Z" stroke-miterlimit="10"/></g><g transform="translate(-10,-10) scale(1,1)"><rect fill="#ffffff" stroke="none" x="247.94970703125" y="174" width="49" height="25"/></g><g transform="translate(-10,-10) scale(1,1)"><path fill="none" stroke="#000000" d="M 247.94970703125 174 L 296.94970703125 174 L 296.94970703125 199 L 247.94970703125 199 L 247.94970703125 174 Z Z" stroke-miterlimit="10"/></g><g transform="translate(-10,-10) scale(1,1)"><g><path fill="none" stroke="none"/><text fill="#000000" stroke="none" font-family="Arial" font-size="13px" font-style="normal" font-weight="bold" text-decoration="none" x="262.33154296875" y="194.5">loja</text></g></g><g transform="translate(-10,-10) scale(1,1)"><path fill="none" stroke="#000000" d="M 183 89 Q 182 75 182 60" stroke-miterlimit="10"/></g><g transform="translate(-10,-10) scale(1,1)"><path fill="#FFFFFF" stroke="none" d="M 175 67 C 175 63.1340064 178.1340064 60 182 60 C 185.8659936 60 189 63.1340064 189 67 C 189 70.8659936 185.8659936 74 182 74 C 178.1340064 74 175 70.8659936 175 67 Z"/></g><g transform="translate(-10,-10) scale(1,1)"><path fill="none" stroke="#000000" d="M 175 67 C 175 63.1340064 178.1340064 60 182 60 C 185.8659936 60 189 63.1340064 189 67 C 189 70.8659936 185.8659936 74 182 74 C 178.1340064 74 175 70.8659936 175 67 Z" stroke-miterlimit="10"/></g><g transform="translate(-10,-10) scale(1,1)"><path fill="none" stroke="#000000" d="M 182 74 L 182 60" stroke-miterlimit="10"/></g><g transform="translate(-10,-10) scale(1,1)"><path fill="none" stroke="#000000" d="M 189 67 L 175 67" stroke-miterlimit="10"/></g><g transform="translate(-10,-10) scale(1,1)"><path fill="none" stroke="#000000" d="M 184 159 Q 182 145 183 130" stroke-miterlimit="10"/></g><g transform="translate(-10,-10) scale(1,1)"><path fill="#FFFFFF" stroke="none" d="M 175.53436692633358 136.98449610499625 C 175.53436692633358 133.11850250499626 178.66837332633358 129.98449610499625 182.53436692633358 129.98449610499625 C 186.40036052633357 129.98449610499625 189.53436692633358 133.11850250499626 189.53436692633358 136.98449610499625 C 189.53436692633358 140.85048970499625 186.40036052633357 143.98449610499625 182.53436692633358 143.98449610499625 C 178.66837332633358 143.98449610499625 175.53436692633358 140.85048970499625 175.53436692633358 136.98449610499625 Z"/></g><g transform="translate(-10,-10) scale(1,1)"><path fill="none" stroke="#000000" d="M 175.53436692633358 136.98449610499625 C 175.53436692633358 133.11850250499626 178.66837332633358 129.98449610499625 182.53436692633358 129.98449610499625 C 186.40036052633357 129.98449610499625 189.53436692633358 133.11850250499626 189.53436692633358 136.98449610499625 C 189.53436692633358 140.85048970499625 186.40036052633357 143.98449610499625 182.53436692633358 143.98449610499625 C 178.66837332633358 143.98449610499625 175.53436692633358 140.85048970499625 175.53436692633358 136.98449610499625 Z" stroke-miterlimit="10"/></g><g transform="translate(-10,-10) scale(1,1)"><path fill="none" stroke="#000000" d="M 182.06873385266718 143.96899220999254 L 183 130" stroke-miterlimit="10"/></g><g transform="translate(-10,-10) scale(1,1)"><path fill="none" stroke="#000000" d="M 189.51886303132983 137.45012917866268 L 175.54987082133732 136.51886303132983" stroke-miterlimit="10"/></g><g transform="translate(-10,-10) scale(1,1)"><path fill="none" stroke="#000000" d="M 49 229 Q 48 215 144 190" stroke-miterlimit="10"/></g><g transform="translate(-10,-10) scale(1,1)"><path fill="#FFFFFF" stroke="none" d="M 130.22593035832872 191.76408063585188 C 130.22593035832872 187.8980870358519 133.35993675832873 184.76408063585188 137.22593035832872 184.76408063585188 C 141.09192395832872 184.76408063585188 144.22593035832872 187.8980870358519 144.22593035832872 191.76408063585188 C 144.22593035832872 195.63007423585188 141.09192395832872 198.76408063585188 137.22593035832872 198.76408063585188 C 133.35993675832873 198.76408063585188 130.22593035832872 195.63007423585188 130.22593035832872 191.76408063585188 Z"/></g><g transform="translate(-10,-10) scale(1,1)"><path fill="none" stroke="#000000" d="M 130.22593035832872 191.76408063585188 C 130.22593035832872 187.8980870358519 133.35993675832873 184.76408063585188 137.22593035832872 184.76408063585188 C 141.09192395832872 184.76408063585188 144.22593035832872 187.8980870358519 144.22593035832872 191.76408063585188 C 144.22593035832872 195.63007423585188 141.09192395832872 198.76408063585188 137.22593035832872 198.76408063585188 C 133.35993675832873 198.76408063585188 130.22593035832872 195.63007423585188 130.22593035832872 191.76408063585188 Z" stroke-miterlimit="10"/></g><g transform="translate(-10,-10) scale(1,1)"><path fill="none" stroke="#000000" d="M 130.45186071665745 193.5281612717038 L 144 190" stroke-miterlimit="10"/></g><g transform="translate(-10,-10) scale(1,1)"><path fill="none" stroke="#000000" d="M 138.9900109941806 198.53815027752316 L 135.46184972247684 184.9900109941806" stroke-miterlimit="10"/></g><g transform="translate(-10,-10) scale(1,1)"><path fill="none" stroke="#000000" d="M 138 229 Q 137 215 157 200" stroke-miterlimit="10"/></g><g transform="translate(-10,-10) scale(1,1)"><path fill="#FFFFFF" stroke="none" d="M 144.4 204.2 C 144.4 200.3340064 147.5340064 197.2 151.4 197.2 C 155.2659936 197.2 158.4 200.3340064 158.4 204.2 C 158.4 208.06599359999998 155.2659936 211.2 151.4 211.2 C 147.5340064 211.2 144.4 208.06599359999998 144.4 204.2 Z"/></g><g transform="translate(-10,-10) scale(1,1)"><path fill="none" stroke="#000000" d="M 144.4 204.2 C 144.4 200.3340064 147.5340064 197.2 151.4 197.2 C 155.2659936 197.2 158.4 200.3340064 158.4 204.2 C 158.4 208.06599359999998 155.2659936 211.2 151.4 211.2 C 147.5340064 211.2 144.4 208.06599359999998 144.4 204.2 Z" stroke-miterlimit="10"/></g><g transform="translate(-10,-10) scale(1,1)"><path fill="none" stroke="#000000" d="M 145.8 208.4 L 157 200" stroke-miterlimit="10"/></g><g transform="translate(-10,-10) scale(1,1)"><path fill="none" stroke="#000000" d="M 155.6 209.79999999999998 L 147.20000000000002 198.6" stroke-miterlimit="10"/></g><g transform="translate(-10,-10) scale(1,1)"><path fill="none" stroke="#000000" d="M 227 229 Q 226 215 209 200" stroke-miterlimit="10"/></g><g transform="translate(-10,-10) scale(1,1)"><path fill="#FFFFFF" stroke="none" d="M 207.24886498755563 204.6313514596079 C 207.24886498755563 200.76535785960792 210.38287138755564 197.6313514596079 214.24886498755563 197.6313514596079 C 218.11485858755563 197.6313514596079 221.24886498755563 200.76535785960792 221.24886498755563 204.6313514596079 C 221.24886498755563 208.4973450596079 218.11485858755563 211.6313514596079 214.24886498755563 211.6313514596079 C 210.38287138755564 211.6313514596079 207.24886498755563 208.4973450596079 207.24886498755563 204.6313514596079 Z"/></g><g transform="translate(-10,-10) scale(1,1)"><path fill="none" stroke="#000000" d="M 207.24886498755563 204.6313514596079 C 207.24886498755563 200.76535785960792 210.38287138755564 197.6313514596079 214.24886498755563 197.6313514596079 C 218.11485858755563 197.6313514596079 221.24886498755563 200.76535785960792 221.24886498755563 204.6313514596079 C 221.24886498755563 208.4973450596079 218.11485858755563 211.6313514596079 214.24886498755563 211.6313514596079 C 210.38287138755564 211.6313514596079 207.24886498755563 208.4973450596079 207.24886498755563 204.6313514596079 Z" stroke-miterlimit="10"/></g><g transform="translate(-10,-10) scale(1,1)"><path fill="none" stroke="#000000" d="M 219.4977299751113 209.26270291921585 L 209 200" stroke-miterlimit="10"/></g><g transform="translate(-10,-10) scale(1,1)"><path fill="none" stroke="#000000" d="M 218.88021644716355 199.38248647205228 L 209.61751352794772 209.88021644716355" stroke-miterlimit="10"/></g><g transform="translate(-10,-10) scale(1,1)"><path fill="none" stroke="#000000" d="M 324 229 Q 322 215 228 190" stroke-miterlimit="10"/></g><g transform="translate(-10,-10) scale(1,1)"><path fill="#FFFFFF" stroke="none" d="M 227.76483755637543 191.79915892456793 C 227.76483755637543 187.93316532456794 230.89884395637543 184.79915892456793 234.76483755637543 184.79915892456793 C 238.63083115637542 184.79915892456793 241.76483755637543 187.93316532456794 241.76483755637543 191.79915892456793 C 241.76483755637543 195.66515252456793 238.63083115637542 198.79915892456793 234.76483755637543 198.79915892456793 C 230.89884395637543 198.79915892456793 227.76483755637543 195.66515252456793 227.76483755637543 191.79915892456793 Z"/></g><g transform="translate(-10,-10) scale(1,1)"><path fill="none" stroke="#000000" d="M 227.76483755637543 191.79915892456793 C 227.76483755637543 187.93316532456794 230.89884395637543 184.79915892456793 234.76483755637543 184.79915892456793 C 238.63083115637542 184.79915892456793 241.76483755637543 187.93316532456794 241.76483755637543 191.79915892456793 C 241.76483755637543 195.66515252456793 238.63083115637542 198.79915892456793 234.76483755637543 198.79915892456793 C 230.89884395637543 198.79915892456793 227.76483755637543 195.66515252456793 227.76483755637543 191.79915892456793 Z" stroke-miterlimit="10"/></g><g transform="translate(-10,-10) scale(1,1)"><path fill="none" stroke="#000000" d="M 241.52967511275088 193.59831784913587 L 228 190" stroke-miterlimit="10"/></g><g transform="translate(-10,-10) scale(1,1)"><path fill="none" stroke="#000000" d="M 236.56399648094336 185.0343213681925 L 232.9656786318075 198.56399648094336" stroke-miterlimit="10"/></g><g transform="translate(-10,-10) scale(1,1)"><path fill="none" stroke="#000000" d="M 273 89 Q 273 75 273 60" stroke-miterlimit="10"/></g><g transform="translate(-10,-10) scale(1,1)"><path fill="#FFFFFF" stroke="none" d="M 266 67 C 266 63.1340064 269.1340064 60 273 60 C 276.8659936 60 280 63.1340064 280 67 C 280 70.8659936 276.8659936 74 273 74 C 269.1340064 74 266 70.8659936 266 67 Z"/></g><g transform="translate(-10,-10) scale(1,1)"><path fill="none" stroke="#000000" d="M 266 67 C 266 63.1340064 269.1340064 60 273 60 C 276.8659936 60 280 63.1340064 280 67 C 280 70.8659936 276.8659936 74 273 74 C 269.1340064 74 266 70.8659936 266 67 Z" stroke-miterlimit="10"/></g><g transform="translate(-10,-10) scale(1,1)"><path fill="none" stroke="#000000" d="M 273 74 L 273 60" stroke-miterlimit="10"/></g><g transform="translate(-10,-10) scale(1,1)"><path fill="none" stroke="#000000" d="M 280 67 L 266 67" stroke-miterlimit="10"/></g><g transform="translate(-10,-10) scale(1,1)"><path fill="none" stroke="#000000" d="M 273 159 Q 273 145 273 130" stroke-miterlimit="10"/></g><g transform="translate(-10,-10) scale(1,1)"><path fill="#FFFFFF" stroke="none" d="M 266 137 C 266 133.1340064 269.1340064 130 273 130 C 276.8659936 130 280 133.1340064 280 137 C 280 140.8659936 276.8659936 144 273 144 C 269.1340064 144 266 140.8659936 266 137 Z"/></g><g transform="translate(-10,-10) scale(1,1)"><path fill="none" stroke="#000000" d="M 266 137 C 266 133.1340064 269.1340064 130 273 130 C 276.8659936 130 280 133.1340064 280 137 C 280 140.8659936 276.8659936 144 273 144 C 269.1340064 144 266 140.8659936 266 137 Z" stroke-miterlimit="10"/></g><g transform="translate(-10,-10) scale(1,1)"><path fill="none" stroke="#000000" d="M 273 144 L 273 130" stroke-miterlimit="10"/></g><g transform="translate(-10,-10) scale(1,1)"><path fill="none" stroke="#000000" d="M 280 137 L 266 137" stroke-miterlimit="10"/></g></g></svg>