<svg version="1.1" xmlns="http://www.w3.org/2000/svg" xmlns:xlink="http://www.w3.org/1999/xlink" width="416.2340087890625" height="264"><defs/><g><text fill="#eeeeee" stroke="none" font-family="Arial" font-size="24px" font-style="normal" font-weight="normal" text-decoration="none" x="0" y="0">UNREGISTERED</text><text fill="#eeeeee" stroke="none" font-family="Arial" font-size="24px" font-style="normal" font-weight="normal" text-decoration="none" x="0" y="30">UNREGISTERED</text><text fill="#eeeeee" stroke="none" font-family="Arial" font-size="24px" font-style="normal" font-weight="normal" text-decoration="none" x="0" y="60">UNREGISTERED</text><text fill="#eeeeee" stroke="none" font-family="Arial" font-size="24px" font-style="normal" font-weight="normal" text-decoration="none" x="0" y="90">UNREGISTERED</text><text fill="#eeeeee" stroke="none" font-family="Arial" font-size="24px" font-style="normal" font-weight="normal" text-decoration="none" x="0" y="120">UNREGISTERED</text><text fill="#eeeeee" stroke="none" font-family="Arial" font-size="24px" font-style="normal" font-weight="normal" text-decoration="none" x="0" y="150">UNREGISTERED</text><text fill="#eeeeee" stroke="none" font-family="Arial" font-size="24px" font-style="normal" font-weight="normal" text-decoration="none" x="0" y="180">UNREGISTERED</text><text fill="#eeeeee" stroke="none" font-family="Arial" font-size="24px" font-style="normal" font-weight="normal" text-decoration="none" x="0" y="210">UNREGISTERED</text><text fill="#eeeeee" stroke="none" font-family="Arial" font-size="24px" font-style="normal" font-weight="normal" text-decoration="none" x="0" y="240">UNREGISTERED</text><text fill="#eeeeee" stroke="none" font-family="Arial" font-size="24px" font-style="normal" font-weight="normal" text-decoration="none" x="200" y="0">UNREGISTERED</text><text fill="#eeeeee" stroke="none" font-family="Arial" font-size="24px" font-style="normal" font-weight="normal" text-decoration="none" x="200" y="30">UNREGISTERED</text><text fill="#eeeeee" stroke="none" font-family="Arial" font-size="24px" font-style="normal" font-weight="normal" text-decoration="none" x="200" y="60">UNREGISTERED</text><text fill="#eeeeee" stroke="none" font-family="Arial" font-size="24px" font-style="normal" font-weight="normal" text-decoration="none" x="200" y="90">UNREGISTERED</text><text fill="#eeeeee" stroke="none" font-family="Arial" font-size="24px" font-style="normal" font-weight="normal" text-decoration="none" x="200" y="120">UNREGISTERED</text><text fill="#eeeeee" stroke="none" font-family="Arial" font-size="24px" font-style="normal" font-weight="normal" text-decoration="none" x="200" y="150">UNREGISTERED</text><text fill="#eeeeee" stroke="none" font-family="Arial" font-size="24px" font-style="normal" font-weight="normal" text-decoration="none" x="200" y="180">UNREGISTERED</text><text fill="#eeeeee" stroke="none" font-family="Arial" font-size="24px" font-style="normal" font-weight="normal" text-decoration="none" x="200" y="210">UNREGISTERED</text><text fill="#eeeeee" stroke="none" font-family="Arial" font-size="24px" font-style="normal" font-weight="normal" text-decoration="none" x="200" y="240">UNREGISTERED</text><text fill="#eeeeee" stroke="none" font-family="Arial" font-size="24px" font-style="normal" font-weight="normal" text-decoration="none" x="400" y="0">UNREGISTERED</text><text fill="#eeeeee" stroke="none" font-family="Arial" font-size="24px" font-style="normal" font-weight="normal" text-decoration="none" x="400" y="30">UNREGISTERED</text><text fill="#eeeeee" stroke="none" font-family="Arial" font-size="24px" font-style="normal" font-weight="normal" text-decoration="none" x="400" y="60">UNREGISTERED</text><text fill="#eeeeee" stroke="none" font-family="Arial" font-size="24px" font-style="normal" font-weight="normal" text-decoration="none" x="400" y="90">UNREGISTERED</text><text fill="#eeeeee" stroke="none" font-family="Arial" font-size="24px" font-style="normal" font-weight="normal" text-decoration="none" x="400" y="120">UNREGISTERED</text><text fill="#eeeeee" stroke="none" font-family="Arial" font-size="24px" font-style="normal" font-weight="normal" text-decoration="none" x="400" y="150">UNREGISTERED</text><text fill="#eeeeee" stroke="none" font-family="Arial" font-size="24px" font-style="normal" font-weight="normal" text-decoration="none" x="400" y="180">UNREGISTERED</text><text fill="#eeeeee" stroke="none" font-family="Arial" font-size="24px" font-style="normal" font-weight="normal" text-decoration="none" x="400" y="210">UNREGISTERED</text><text fill="#eeeeee" stroke="none" font-family="Arial" font-size="24px" font-style="normal" font-weight="normal" text-decoration="none" x="400" y="240">UNREGISTERED</text><g transform="translate(-2,-10) scale(1,1)"><rect fill="#C0C0C0" stroke="none" x="99.6717529296875" y="82" width="52.341796875" height="24" opacity="0.2"/></g><g transform="translate(-2,-10) scale(1,1)"><rect fill="#ffffff" stroke="none" x="92.6717529296875" y="75" width="52.341796875" height="24"/></g><g transform="translate(-2,-10) scale(1,1)"><path fill="none" stroke="#000000" d="M 92.6717529296875 75 L 145.0135498046875 75 L 145.0135498046875 99 L 92.6717529296875 99 L 92.6717529296875 75 Z Z" stroke-miterlimit="10"/></g><g transform="translate(-2,-10) scale(1,1)"><g><path fill="none" stroke="none"/><text fill="#000000" stroke="none" font-family="Arial" font-size="13px" font-style="normal" font-weight="bold" text-decoration="none" x="98.2445068359375" y="94.5">Cidade</text></g></g><g transform="translate(-2,-10) scale(1,1)"><rect fill="#C0C0C0" stroke="none" x="30.253173828125" y="137" width="52.341796875" height="24" opacity="0.2"/></g><g transform="translate(-2,-10) scale(1,1)"><rect fill="#ffffff" stroke="none" x="23.253173828125" y="130" width="52.341796875" height="24"/></g><g transform="translate(-2,-10) scale(1,1)"><path fill="none" stroke="#000000" d="M 23.253173828125 130 L 75.594970703125 130 L 75.594970703125 154 L 23.253173828125 154 L 23.253173828125 130 Z Z" stroke-miterlimit="10"/></g><g transform="translate(-2,-10) scale(1,1)"><g><path fill="none" stroke="none"/><text fill="#000000" stroke="none" font-family="Arial" font-size="13px" font-style="normal" font-weight="bold" text-decoration="none" x="29.19091796875" y="149.5">Cliente</text></g></g><g transform="translate(-2,-10) scale(1,1)"><rect fill="#C0C0C0" stroke="none" x="27" y="192" width="58.1181640625" height="24" opacity="0.2"/></g><g transform="translate(-2,-10) scale(1,1)"><rect fill="#ffffff" stroke="none" x="20" y="185" width="58.1181640625" height="24"/></g><g transform="translate(-2,-10) scale(1,1)"><path fill="none" stroke="#000000" d="M 20 185 L 78.1181640625 185 L 78.1181640625 209 L 20 209 L 20 185 Z Z" stroke-miterlimit="10"/></g><g transform="translate(-2,-10) scale(1,1)"><g><path fill="none" stroke="none"/><text fill="#000000" stroke="none" font-family="Arial" font-size="13px" font-style="normal" font-weight="bold" text-decoration="none" x="25.94091796875" y="204.5">Compra</text></g></g><g transform="translate(-2,-10) scale(1,1)"><rect fill="#C0C0C0" stroke="none" x="332.5567626953125" y="247" width="87.74267578125" height="24" opacity="0.2"/></g><g transform="translate(-2,-10) scale(1,1)"><rect fill="#ffffff" stroke="none" x="325.5567626953125" y="240" width="87.74267578125" height="24"/></g><g transform="translate(-2,-10) scale(1,1)"><path fill="none" stroke="#000000" d="M 325.5567626953125 240 L 413.2994384765625 240 L 413.2994384765625 264 L 325.5567626953125 264 L 325.5567626953125 240 Z Z" stroke-miterlimit="10"/></g><g transform="translate(-2,-10) scale(1,1)"><g><path fill="none" stroke="none"/><text fill="#000000" stroke="none" font-family="Arial" font-size="13px" font-style="normal" font-weight="bold" text-decoration="none" x="332.5704345703125" y="259.5">EntradaItens</text></g></g><g transform="translate(-2,-10) scale(1,1)"><rect fill="#C0C0C0" stroke="none" x="113.21728515625" y="192" width="107.2236328125" height="24" opacity="0.2"/></g><g transform="translate(-2,-10) scale(1,1)"><rect fill="#ffffff" stroke="none" x="106.21728515625" y="185" width="107.2236328125" height="24"/></g><g transform="translate(-2,-10) scale(1,1)"><path fill="none" stroke="#000000" d="M 106.21728515625 185 L 213.44091796875 185 L 213.44091796875 209 L 106.21728515625 209 L 106.21728515625 185 Z Z" stroke-miterlimit="10"/></g><g transform="translate(-2,-10) scale(1,1)"><g><path fill="none" stroke="none"/><text fill="#000000" stroke="none" font-family="Arial" font-size="13px" font-style="normal" font-weight="bold" text-decoration="none" x="114.29736328125" y="204.5">EntradaProduto</text></g></g><g transform="translate(-2,-10) scale(1,1)"><rect fill="#C0C0C0" stroke="none" x="100.3922119140625" y="27" width="52.341796875" height="24" opacity="0.2"/></g><g transform="translate(-2,-10) scale(1,1)"><rect fill="#ffffff" stroke="none" x="93.3922119140625" y="20" width="52.341796875" height="24"/></g><g transform="translate(-2,-10) scale(1,1)"><path fill="none" stroke="#000000" d="M 93.3922119140625 20 L 145.7340087890625 20 L 145.7340087890625 44 L 93.3922119140625 44 L 93.3922119140625 20 Z Z" stroke-miterlimit="10"/></g><g transform="translate(-2,-10) scale(1,1)"><g><path fill="none" stroke="none"/><text fill="#000000" stroke="none" font-family="Arial" font-size="13px" font-style="normal" font-weight="bold" text-decoration="none" x="99.3267822265625" y="39.5">Estado</text></g></g><g transform="translate(-2,-10) scale(1,1)"><rect fill="#C0C0C0" stroke="none" x="142.4249267578125" y="137" width="83.38818359375" height="24" opacity="0.2"/></g><g transform="translate(-2,-10) scale(1,1)"><rect fill="#ffffff" stroke="none" x="135.4249267578125" y="130" width="83.38818359375" height="24"/></g><g transform="translate(-2,-10) scale(1,1)"><path fill="none" stroke="#000000" d="M 135.4249267578125 130 L 218.8131103515625 130 L 218.8131103515625 154 L 135.4249267578125 154 L 135.4249267578125 130 Z Z" stroke-miterlimit="10"/></g><g transform="translate(-2,-10) scale(1,1)"><g><path fill="none" stroke="none"/><text fill="#000000" stroke="none" font-family="Arial" font-size="13px" font-style="normal" font-weight="bold" text-decoration="none" x="143.1558837890625" y="149.5">Funcionario</text></g></g><g transform="translate(-2,-10) scale(1,1)"><rect fill="#C0C0C0" stroke="none" x="28.2763671875" y="247" width="88.4599609375" height="24" opacity="0.2"/></g><g transform="translate(-2,-10) scale(1,1)"><rect fill="#ffffff" stroke="none" x="21.2763671875" y="240" width="88.4599609375" height="24"/></g><g transform="translate(-2,-10) scale(1,1)"><path fill="none" stroke="#000000" d="M 21.2763671875 240 L 109.736328125 240 L 109.736328125 264 L 21.2763671875 264 L 21.2763671875 240 Z Z" stroke-miterlimit="10"/></g><g transform="translate(-2,-10) scale(1,1)"><g><path fill="none" stroke="none"/><text fill="#000000" stroke="none" font-family="Arial" font-size="13px" font-style="normal" font-weight="bold" text-decoration="none" x="28.29638671875" y="259.5">ItensCompra</text></g></g><g transform="translate(-2,-10) scale(1,1)"><rect fill="#C0C0C0" stroke="none" x="275.30908203125" y="137" width="43.68359375" height="24" opacity="0.2"/></g><g transform="translate(-2,-10) scale(1,1)"><rect fill="#ffffff" stroke="none" x="268.30908203125" y="130" width="43.68359375" height="24"/></g><g transform="translate(-2,-10) scale(1,1)"><path fill="none" stroke="#000000" d="M 268.30908203125 130 L 311.99267578125 130 L 311.99267578125 154 L 268.30908203125 154 L 268.30908203125 130 Z Z" stroke-miterlimit="10"/></g><g transform="translate(-2,-10) scale(1,1)"><g><path fill="none" stroke="none"/><text fill="#000000" stroke="none" font-family="Arial" font-size="13px" font-style="normal" font-weight="bold" text-decoration="none" x="273.5263671875" y="149.5">Papel</text></g></g><g transform="translate(-2,-10) scale(1,1)"><rect fill="#C0C0C0" stroke="none" x="249.7227783203125" y="192" width="74.76171875" height="24" opacity="0.2"/></g><g transform="translate(-2,-10) scale(1,1)"><rect fill="#ffffff" stroke="none" x="242.7227783203125" y="185" width="74.76171875" height="24"/></g><g transform="translate(-2,-10) scale(1,1)"><path fill="none" stroke="#000000" d="M 242.7227783203125 185 L 317.4844970703125 185 L 317.4844970703125 209 L 242.7227783203125 209 L 242.7227783203125 185 Z Z" stroke-miterlimit="10"/></g><g transform="translate(-2,-10) scale(1,1)"><g><path fill="none" stroke="none"/><text fill="#000000" stroke="none" font-family="Arial" font-size="13px" font-style="normal" font-weight="bold" text-decoration="none" x="249.4000244140625" y="204.5">Permissao</text></g></g><g transform="translate(-2,-10) scale(1,1)"><rect fill="#C0C0C0" stroke="none" x="346.7628173828125" y="192" width="58.82275390625" height="24" opacity="0.2"/></g><g transform="translate(-2,-10) scale(1,1)"><rect fill="#ffffff" stroke="none" x="339.7628173828125" y="185" width="58.82275390625" height="24"/></g><g transform="translate(-2,-10) scale(1,1)"><path fill="none" stroke="#000000" d="M 339.7628173828125 185 L 398.5855712890625 185 L 398.5855712890625 209 L 339.7628173828125 209 L 339.7628173828125 185 Z Z" stroke-miterlimit="10"/></g><g transform="translate(-2,-10) scale(1,1)"><g><path fill="none" stroke="none"/><text fill="#000000" stroke="none" font-family="Arial" font-size="13px" font-style="normal" font-weight="bold" text-decoration="none" x="346.4083251953125" y="204.5">Produto</text></g></g><g transform="translate(-2,-10) scale(1,1)"><path fill="none" stroke="#000000" d="M 118 74 Q 118 60 119 45" stroke-miterlimit="10"/></g><g transform="translate(-2,-10) scale(1,1)"><path fill="none" stroke="#000000" d="M 122.52418326288262 55.42017909297235 L 119 45 L 114.1237945855094 54.86015318114747" stroke-miterlimit="10"/></g><g transform="translate(-2,-10) scale(1,1)"><g><path fill="none" stroke="none"/><text fill="#000000" stroke="none" font-family="Arial" font-size="13px" font-style="normal" font-weight="normal" text-decoration="none" x="80.5" y="75.5">-estado</text></g></g><g transform="translate(-2,-10) scale(1,1)"><path fill="none" stroke="#000000" d="M 49 129 Q 48 115 92 98" stroke-miterlimit="10"/></g><g transform="translate(-2,-10) scale(1,1)"><path fill="none" stroke="#000000" d="M 84.03738301729439 105.58925100301263 L 92 98 L 81.00316868718066 97.73599038389474" stroke-miterlimit="10"/></g><g transform="translate(-2,-10) scale(1,1)"><g><path fill="none" stroke="none"/><text fill="#000000" stroke="none" font-family="Arial" font-size="13px" font-style="normal" font-weight="normal" text-decoration="none" x="40.5" y="99.5">-cidade</text></g></g><g transform="translate(-2,-10) scale(1,1)"><path fill="none" stroke="#000000" d="M 176 129 Q 174 115 144 100" stroke-miterlimit="10"/></g><g transform="translate(-2,-10) scale(1,1)"><path fill="none" stroke="#000000" d="M 154.97232629693906 100.77977922099747 L 144 100 L 151.20721915496142 108.30999350495277" stroke-miterlimit="10"/></g><g transform="translate(-2,-10) scale(1,1)"><g><path fill="none" stroke="none"/><text fill="#000000" stroke="none" font-family="Arial" font-size="13px" font-style="normal" font-weight="normal" text-decoration="none" x="138.5" y="131.5">-cidade</text></g></g><g transform="translate(-2,-10) scale(1,1)"><path fill="none" stroke="#000000" d="M 49 184 Q 48 170 49 155" stroke-miterlimit="10"/></g><g transform="translate(-2,-10) scale(1,1)"><path fill="none" stroke="#000000" d="M 52.524183262882616 165.42017909297235 L 49 155 L 44.1237945855094 164.86015318114747" stroke-miterlimit="10"/></g><g transform="translate(-2,-10) scale(1,1)"><g><path fill="none" stroke="none"/><text fill="#000000" stroke="none" font-family="Arial" font-size="13px" font-style="normal" font-weight="normal" text-decoration="none" x="11.5" y="185.5">-cliente</text></g></g><g transform="translate(-2,-10) scale(1,1)"><path fill="none" stroke="#000000" d="M 57 239 Q 48 225 49 210" stroke-miterlimit="10"/></g><g transform="translate(-2,-10) scale(1,1)"><path fill="none" stroke="#000000" d="M 52.524183262882616 220.42017909297235 L 49 210 L 44.1237945855094 219.86015318114747" stroke-miterlimit="10"/></g><g transform="translate(-2,-10) scale(1,1)"><g><path fill="none" stroke="none"/><text fill="#000000" stroke="none" font-family="Arial" font-size="13px" font-style="normal" font-weight="normal" text-decoration="none" x="8.5" y="240.5">-compra</text></g></g><g transform="translate(-2,-10) scale(1,1)"><path fill="none" stroke="#000000" d="M 325 246 Q 159 225 159 210" stroke-miterlimit="10"/></g><g transform="translate(-2,-10) scale(1,1)"><path fill="none" stroke="#000000" d="M 163.209517756016 220.16267485762415 L 159 210 L 154.790482243984 220.16267485762415" stroke-miterlimit="10"/></g><g transform="translate(-2,-10) scale(1,1)"><g><path fill="none" stroke="none"/><text fill="#000000" stroke="none" font-family="Arial" font-size="13px" font-style="normal" font-weight="normal" text-decoration="none" x="119.5" y="241.5">-entrada</text></g></g><g transform="translate(-2,-10) scale(1,1)"><path fill="none" stroke="#000000" d="M 368 239 Q 367 225 368 210" stroke-miterlimit="10"/></g><g transform="translate(-2,-10) scale(1,1)"><path fill="none" stroke="#000000" d="M 371.5241832628826 220.42017909297235 L 368 210 L 363.1237945855094 219.86015318114747" stroke-miterlimit="10"/></g><g transform="translate(-2,-10) scale(1,1)"><g><path fill="none" stroke="none"/><text fill="#000000" stroke="none" font-family="Arial" font-size="13px" font-style="normal" font-weight="normal" text-decoration="none" x="326.5" y="240.5">-produto</text></g></g><g transform="translate(-2,-10) scale(1,1)"><path fill="none" stroke="#000000" d="M 158 184 Q 157 170 168 155" stroke-miterlimit="10"/></g><g transform="translate(-2,-10) scale(1,1)"><path fill="none" stroke="#000000" d="M 165.3847395125347 165.684587618748 L 168 155 L 158.59558721534552 160.7058759341426" stroke-miterlimit="10"/></g><g transform="translate(-2,-10) scale(1,1)"><g><path fill="none" stroke="none"/><text fill="#000000" stroke="none" font-family="Arial" font-size="13px" font-style="normal" font-weight="normal" text-decoration="none" x="106.5" y="173.5">-funcionario</text></g></g><g transform="translate(-2,-10) scale(1,1)"><path fill="none" stroke="#000000" d="M 255 184 Q 229 170 201 155" stroke-miterlimit="10"/></g><g transform="translate(-2,-10) scale(1,1)"><path fill="none" stroke="#000000" d="M 211.9460187496654 156.0884270907936 L 201 155 L 207.9703699081562 163.5096382616108" stroke-miterlimit="10"/></g><g transform="translate(-2,-10) scale(1,1)"><g><path fill="none" stroke="none"/><text fill="#000000" stroke="none" font-family="Arial" font-size="13px" font-style="normal" font-weight="normal" text-decoration="none" x="182.5" y="186.5">-funcionario</text></g></g><g transform="translate(-2,-10) scale(1,1)"><path fill="none" stroke="#000000" d="M 84 239 Q 105 225 339 200" stroke-miterlimit="10"/></g><g transform="translate(-2,-10) scale(1,1)"><path fill="none" stroke="#000000" d="M 329.3420229489962 205.26530903958007 L 339 200 L 328.44764320776125 196.89391466162104" stroke-miterlimit="10"/></g><g transform="translate(-2,-10) scale(1,1)"><g><path fill="none" stroke="none"/><text fill="#000000" stroke="none" font-family="Arial" font-size="13px" font-style="normal" font-weight="normal" text-decoration="none" x="286.5" y="193.5">-produto</text></g></g><g transform="translate(-2,-10) scale(1,1)"><path fill="none" stroke="#000000" d="M 284 184 Q 289 170 290 155" stroke-miterlimit="10"/></g><g transform="translate(-2,-10) scale(1,1)"><path fill="none" stroke="#000000" d="M 293.5241832628826 165.42017909297235 L 290 155 L 285.1237945855094 164.86015318114747" stroke-miterlimit="10"/></g><g transform="translate(-2,-10) scale(1,1)"><g><path fill="none" stroke="none"/><text fill="#000000" stroke="none" font-family="Arial" font-size="13px" font-style="normal" font-weight="normal" text-decoration="none" x="254.5" y="185.5">-papel</text></g></g></g></svg>