<svg version="1.1" xmlns="http://www.w3.org/2000/svg" xmlns:xlink="http://www.w3.org/1999/xlink" width="1740.0068359375" height="68"><defs/><g><text fill="#eeeeee" stroke="none" font-family="Arial" font-size="24px" font-style="normal" font-weight="normal" text-decoration="none" x="0" y="0">UNREGISTERED</text><text fill="#eeeeee" stroke="none" font-family="Arial" font-size="24px" font-style="normal" font-weight="normal" text-decoration="none" x="0" y="30">UNREGISTERED</text><text fill="#eeeeee" stroke="none" font-family="Arial" font-size="24px" font-style="normal" font-weight="normal" text-decoration="none" x="0" y="60">UNREGISTERED</text><text fill="#eeeeee" stroke="none" font-family="Arial" font-size="24px" font-style="normal" font-weight="normal" text-decoration="none" x="200" y="0">UNREGISTERED</text><text fill="#eeeeee" stroke="none" font-family="Arial" font-size="24px" font-style="normal" font-weight="normal" text-decoration="none" x="200" y="30">UNREGISTERED</text><text fill="#eeeeee" stroke="none" font-family="Arial" font-size="24px" font-style="normal" font-weight="normal" text-decoration="none" x="200" y="60">UNREGISTERED</text><text fill="#eeeeee" stroke="none" font-family="Arial" font-size="24px" font-style="normal" font-weight="normal" text-decoration="none" x="400" y="0">UNREGISTERED</text><text fill="#eeeeee" stroke="none" font-family="Arial" font-size="24px" font-style="normal" font-weight="normal" text-decoration="none" x="400" y="30">UNREGISTERED</text><text fill="#eeeeee" stroke="none" font-family="Arial" font-size="24px" font-style="normal" font-weight="normal" text-decoration="none" x="400" y="60">UNREGISTERED</text><text fill="#eeeeee" stroke="none" font-family="Arial" font-size="24px" font-style="normal" font-weight="normal" text-decoration="none" x="600" y="0">UNREGISTERED</text><text fill="#eeeeee" stroke="none" font-family="Arial" font-size="24px" font-style="normal" font-weight="normal" text-decoration="none" x="600" y="30">UNREGISTERED</text><text fill="#eeeeee" stroke="none" font-family="Arial" font-size="24px" font-style="normal" font-weight="normal" text-decoration="none" x="600" y="60">UNREGISTERED</text><text fill="#eeeeee" stroke="none" font-family="Arial" font-size="24px" font-style="normal" font-weight="normal" text-decoration="none" x="800" y="0">UNREGISTERED</text><text fill="#eeeeee" stroke="none" font-family="Arial" font-size="24px" font-style="normal" font-weight="normal" text-decoration="none" x="800" y="30">UNREGISTERED</text><text fill="#eeeeee" stroke="none" font-family="Arial" font-size="24px" font-style="normal" font-weight="normal" text-decoration="none" x="800" y="60">UNREGISTERED</text><text fill="#eeeeee" stroke="none" font-family="Arial" font-size="24px" font-style="normal" font-weight="normal" text-decoration="none" x="1000" y="0">UNREGISTERED</text><text fill="#eeeeee" stroke="none" font-family="Arial" font-size="24px" font-style="normal" font-weight="normal" text-decoration="none" x="1000" y="30">UNREGISTERED</text><text fill="#eeeeee" stroke="none" font-family="Arial" font-size="24px" font-style="normal" font-weight="normal" text-decoration="none" x="1000" y="60">UNREGISTERED</text><text fill="#eeeeee" stroke="none" font-family="Arial" font-size="24px" font-style="normal" font-weight="normal" text-decoration="none" x="1200" y="0">UNREGISTERED</text><text fill="#eeeeee" stroke="none" font-family="Arial" font-size="24px" font-style="normal" font-weight="normal" text-decoration="none" x="1200" y="30">UNREGISTERED</text><text fill="#eeeeee" stroke="none" font-family="Arial" font-size="24px" font-style="normal" font-weight="normal" text-decoration="none" x="1200" y="60">UNREGISTERED</text><text fill="#eeeeee" stroke="none" font-family="Arial" font-size="24px" font-style="normal" font-weight="normal" text-decoration="none" x="1400" y="0">UNREGISTERED</text><text fill="#eeeeee" stroke="none" font-family="Arial" font-size="24px" font-style="normal" font-weight="normal" text-decoration="none" x="1400" y="30">UNREGISTERED</text><text fill="#eeeeee" stroke="none" font-family="Arial" font-size="24px" font-style="normal" font-weight="normal" text-decoration="none" x="1400" y="60">UNREGISTERED</text><text fill="#eeeeee" stroke="none" font-family="Arial" font-size="24px" font-style="normal" font-weight="normal" text-decoration="none" x="1600" y="0">UNREGISTERED</text><text fill="#eeeeee" stroke="none" font-family="Arial" font-size="24px" font-style="normal" font-weight="normal" text-decoration="none" x="1600" y="30">UNREGISTERED</text><text fill="#eeeeee" stroke="none" font-family="Arial" font-size="24px" font-style="normal" font-weight="normal" text-decoration="none" x="1600" y="60">UNREGISTERED</text><g transform="translate(-10,-10) scale(1,1)"><path fill="#C0C0C0" stroke="none" d="M 77.78271484375 38.5 C 77.78271484375 32.1487248 82.93143964375 27 89.28271484375 27 C 95.63399004375 27 100.78271484375 32.1487248 100.78271484375 38.5 C 100.78271484375 44.8512752 95.63399004375 50 89.28271484375 50 C 82.93143964375 50 77.78271484375 44.8512752 77.78271484375 38.5 Z" opacity="0.2"/></g><g transform="translate(-10,-10) scale(1,1)"><path fill="#ffffff" stroke="none" d="M 70.78271484375 31.5 C 70.78271484375 25.1487248 75.93143964375 20 82.28271484375 20 C 88.63399004375 20 93.78271484375 25.1487248 93.78271484375 31.5 C 93.78271484375 37.8512752 88.63399004375 43 82.28271484375 43 C 75.93143964375 43 70.78271484375 37.8512752 70.78271484375 31.5 Z"/></g><g transform="translate(-10,-10) scale(1,1)"><path fill="none" stroke="#000000" d="M 70.78271484375 31.5 C 70.78271484375 25.1487248 75.93143964375 20 82.28271484375 20 C 88.63399004375 20 93.78271484375 25.1487248 93.78271484375 31.5 C 93.78271484375 37.8512752 88.63399004375 43 82.28271484375 43 C 75.93143964375 43 70.78271484375 37.8512752 70.78271484375 31.5 Z" stroke-miterlimit="10"/></g><g transform="translate(-10,-10) scale(1,1)"><g><path fill="none" stroke="none"/><text fill="#000000" stroke="none" font-family="Arial" font-size="13px" font-style="normal" font-weight="bold" text-decoration="none" x="28.806884765625" y="62.5">CidadeRepositorio</text></g></g><g transform="translate(-10,-10) scale(1,1)"><path fill="#C0C0C0" stroke="none" d="M 221.78271484375 38.5 C 221.78271484375 32.1487248 226.93143964375 27 233.28271484375 27 C 239.63399004375 27 244.78271484375 32.1487248 244.78271484375 38.5 C 244.78271484375 44.8512752 239.63399004375 50 233.28271484375 50 C 226.93143964375 50 221.78271484375 44.8512752 221.78271484375 38.5 Z" opacity="0.2"/></g><g transform="translate(-10,-10) scale(1,1)"><path fill="#ffffff" stroke="none" d="M 214.78271484375 31.5 C 214.78271484375 25.1487248 219.93143964375 20 226.28271484375 20 C 232.63399004375 20 237.78271484375 25.1487248 237.78271484375 31.5 C 237.78271484375 37.8512752 232.63399004375 43 226.28271484375 43 C 219.93143964375 43 214.78271484375 37.8512752 214.78271484375 31.5 Z"/></g><g transform="translate(-10,-10) scale(1,1)"><path fill="none" stroke="#000000" d="M 214.78271484375 31.5 C 214.78271484375 25.1487248 219.93143964375 20 226.28271484375 20 C 232.63399004375 20 237.78271484375 25.1487248 237.78271484375 31.5 C 237.78271484375 37.8512752 232.63399004375 43 226.28271484375 43 C 219.93143964375 43 214.78271484375 37.8512752 214.78271484375 31.5 Z" stroke-miterlimit="10"/></g><g transform="translate(-10,-10) scale(1,1)"><g><path fill="none" stroke="none"/><text fill="#000000" stroke="none" font-family="Arial" font-size="13px" font-style="normal" font-weight="bold" text-decoration="none" x="173.171875" y="62.5">ClienteRepositorio</text></g></g><g transform="translate(-10,-10) scale(1,1)"><path fill="#C0C0C0" stroke="none" d="M 368.65185546875 38.5 C 368.65185546875 32.1487248 373.80058026875 27 380.15185546875 27 C 386.50313066875 27 391.65185546875 32.1487248 391.65185546875 38.5 C 391.65185546875 44.8512752 386.50313066875 50 380.15185546875 50 C 373.80058026875 50 368.65185546875 44.8512752 368.65185546875 38.5 Z" opacity="0.2"/></g><g transform="translate(-10,-10) scale(1,1)"><path fill="#ffffff" stroke="none" d="M 361.65185546875 31.5 C 361.65185546875 25.1487248 366.80058026875 20 373.15185546875 20 C 379.50313066875 20 384.65185546875 25.1487248 384.65185546875 31.5 C 384.65185546875 37.8512752 379.50313066875 43 373.15185546875 43 C 366.80058026875 43 361.65185546875 37.8512752 361.65185546875 31.5 Z"/></g><g transform="translate(-10,-10) scale(1,1)"><path fill="none" stroke="#000000" d="M 361.65185546875 31.5 C 361.65185546875 25.1487248 366.80058026875 20 373.15185546875 20 C 379.50313066875 20 384.65185546875 25.1487248 384.65185546875 31.5 C 384.65185546875 37.8512752 379.50313066875 43 373.15185546875 43 C 366.80058026875 43 361.65185546875 37.8512752 361.65185546875 31.5 Z" stroke-miterlimit="10"/></g><g transform="translate(-10,-10) scale(1,1)"><g><path fill="none" stroke="none"/><text fill="#000000" stroke="none" font-family="Arial" font-size="13px" font-style="normal" font-weight="bold" text-decoration="none" x="317.156005859375" y="62.5">CompraRepositorio</text></g></g><g transform="translate(-10,-10) scale(1,1)"><path fill="#C0C0C0" stroke="none" d="M 533.951416015625 38.5 C 533.951416015625 32.1487248 539.100140815625 27 545.451416015625 27 C 551.802691215625 27 556.951416015625 32.1487248 556.951416015625 38.5 C 556.951416015625 44.8512752 551.802691215625 50 545.451416015625 50 C 539.100140815625 50 533.951416015625 44.8512752 533.951416015625 38.5 Z" opacity="0.2"/></g><g transform="translate(-10,-10) scale(1,1)"><path fill="#ffffff" stroke="none" d="M 526.951416015625 31.5 C 526.951416015625 25.1487248 532.100140815625 20 538.451416015625 20 C 544.802691215625 20 549.951416015625 25.1487248 549.951416015625 31.5 C 549.951416015625 37.8512752 544.802691215625 43 538.451416015625 43 C 532.100140815625 43 526.951416015625 37.8512752 526.951416015625 31.5 Z"/></g><g transform="translate(-10,-10) scale(1,1)"><path fill="none" stroke="#000000" d="M 526.951416015625 31.5 C 526.951416015625 25.1487248 532.100140815625 20 538.451416015625 20 C 544.802691215625 20 549.951416015625 25.1487248 549.951416015625 31.5 C 549.951416015625 37.8512752 544.802691215625 43 538.451416015625 43 C 532.100140815625 43 526.951416015625 37.8512752 526.951416015625 31.5 Z" stroke-miterlimit="10"/></g><g transform="translate(-10,-10) scale(1,1)"><g><path fill="none" stroke="none"/><text fill="#000000" stroke="none" font-family="Arial" font-size="13px" font-style="normal" font-weight="bold" text-decoration="none" x="468.716064453125" y="62.5">EntradaItensRepositorio</text></g></g><g transform="translate(-10,-10) scale(1,1)"><path fill="#C0C0C0" stroke="none" d="M 721.63916015625 38.5 C 721.63916015625 32.1487248 726.78788495625 27 733.13916015625 27 C 739.49043535625 27 744.63916015625 32.1487248 744.63916015625 38.5 C 744.63916015625 44.8512752 739.49043535625 50 733.13916015625 50 C 726.78788495625 50 721.63916015625 44.8512752 721.63916015625 38.5 Z" opacity="0.2"/></g><g transform="translate(-10,-10) scale(1,1)"><path fill="#ffffff" stroke="none" d="M 714.63916015625 31.5 C 714.63916015625 25.1487248 719.78788495625 20 726.13916015625 20 C 732.49043535625 20 737.63916015625 25.1487248 737.63916015625 31.5 C 737.63916015625 37.8512752 732.49043535625 43 726.13916015625 43 C 719.78788495625 43 714.63916015625 37.8512752 714.63916015625 31.5 Z"/></g><g transform="translate(-10,-10) scale(1,1)"><path fill="none" stroke="#000000" d="M 714.63916015625 31.5 C 714.63916015625 25.1487248 719.78788495625 20 726.13916015625 20 C 732.49043535625 20 737.63916015625 25.1487248 737.63916015625 31.5 C 737.63916015625 37.8512752 732.49043535625 43 726.13916015625 43 C 719.78788495625 43 714.63916015625 37.8512752 714.63916015625 31.5 Z" stroke-miterlimit="10"/></g><g transform="translate(-10,-10) scale(1,1)"><g><path fill="none" stroke="none"/><text fill="#000000" stroke="none" font-family="Arial" font-size="13px" font-style="normal" font-weight="bold" text-decoration="none" x="647.729736328125" y="62.5">EntradaProdutoRepositorio</text></g></g><g transform="translate(-10,-10) scale(1,1)"><path fill="#C0C0C0" stroke="none" d="M 889.96337890625 38.5 C 889.96337890625 32.1487248 895.11210370625 27 901.46337890625 27 C 907.81465410625 27 912.96337890625 32.1487248 912.96337890625 38.5 C 912.96337890625 44.8512752 907.81465410625 50 901.46337890625 50 C 895.11210370625 50 889.96337890625 44.8512752 889.96337890625 38.5 Z" opacity="0.2"/></g><g transform="translate(-10,-10) scale(1,1)"><path fill="#ffffff" stroke="none" d="M 882.96337890625 31.5 C 882.96337890625 25.1487248 888.11210370625 20 894.46337890625 20 C 900.81465410625 20 905.96337890625 25.1487248 905.96337890625 31.5 C 905.96337890625 37.8512752 900.81465410625 43 894.46337890625 43 C 888.11210370625 43 882.96337890625 37.8512752 882.96337890625 31.5 Z"/></g><g transform="translate(-10,-10) scale(1,1)"><path fill="none" stroke="#000000" d="M 882.96337890625 31.5 C 882.96337890625 25.1487248 888.11210370625 20 894.46337890625 20 C 900.81465410625 20 905.96337890625 25.1487248 905.96337890625 31.5 C 905.96337890625 37.8512752 900.81465410625 43 894.46337890625 43 C 888.11210370625 43 882.96337890625 37.8512752 882.96337890625 31.5 Z" stroke-miterlimit="10"/></g><g transform="translate(-10,-10) scale(1,1)"><g><path fill="none" stroke="none"/><text fill="#000000" stroke="none" font-family="Arial" font-size="13px" font-style="normal" font-weight="bold" text-decoration="none" x="841.349365234375" y="62.5">EstadoRepositorio</text></g></g><g transform="translate(-10,-10) scale(1,1)"><path fill="#C0C0C0" stroke="none" d="M 1048.045654296875 38.5 C 1048.045654296875 32.1487248 1053.194379096875 27 1059.545654296875 27 C 1065.896929496875 27 1071.045654296875 32.1487248 1071.045654296875 38.5 C 1071.045654296875 44.8512752 1065.896929496875 50 1059.545654296875 50 C 1053.194379096875 50 1048.045654296875 44.8512752 1048.045654296875 38.5 Z" opacity="0.2"/></g><g transform="translate(-10,-10) scale(1,1)"><path fill="#ffffff" stroke="none" d="M 1041.045654296875 31.5 C 1041.045654296875 25.1487248 1046.194379096875 20 1052.545654296875 20 C 1058.896929496875 20 1064.045654296875 25.1487248 1064.045654296875 31.5 C 1064.045654296875 37.8512752 1058.896929496875 43 1052.545654296875 43 C 1046.194379096875 43 1041.045654296875 37.8512752 1041.045654296875 31.5 Z"/></g><g transform="translate(-10,-10) scale(1,1)"><path fill="none" stroke="#000000" d="M 1041.045654296875 31.5 C 1041.045654296875 25.1487248 1046.194379096875 20 1052.545654296875 20 C 1058.896929496875 20 1064.045654296875 25.1487248 1064.045654296875 31.5 C 1064.045654296875 37.8512752 1058.896929496875 43 1052.545654296875 43 C 1046.194379096875 43 1041.045654296875 37.8512752 1041.045654296875 31.5 Z" stroke-miterlimit="10"/></g><g transform="translate(-10,-10) scale(1,1)"><g><path fill="none" stroke="none"/><text fill="#000000" stroke="none" font-family="Arial" font-size="13px" font-style="normal" font-weight="bold" text-decoration="none" x="985.704833984375" y="62.5">FuncionarioRepositorio</text></g></g><g transform="translate(-10,-10) scale(1,1)"><path fill="#C0C0C0" stroke="none" d="M 1222.74609375 38.5 C 1222.74609375 32.1487248 1227.89481855 27 1234.24609375 27 C 1240.59736895 27 1245.74609375 32.1487248 1245.74609375 38.5 C 1245.74609375 44.8512752 1240.59736895 50 1234.24609375 50 C 1227.89481855 50 1222.74609375 44.8512752 1222.74609375 38.5 Z" opacity="0.2"/></g><g transform="translate(-10,-10) scale(1,1)"><path fill="#ffffff" stroke="none" d="M 1215.74609375 31.5 C 1215.74609375 25.1487248 1220.89481855 20 1227.24609375 20 C 1233.59736895 20 1238.74609375 25.1487248 1238.74609375 31.5 C 1238.74609375 37.8512752 1233.59736895 43 1227.24609375 43 C 1220.89481855 43 1215.74609375 37.8512752 1215.74609375 31.5 Z"/></g><g transform="translate(-10,-10) scale(1,1)"><path fill="none" stroke="#000000" d="M 1215.74609375 31.5 C 1215.74609375 25.1487248 1220.89481855 20 1227.24609375 20 C 1233.59736895 20 1238.74609375 25.1487248 1238.74609375 31.5 C 1238.74609375 37.8512752 1233.59736895 43 1227.24609375 43 C 1220.89481855 43 1215.74609375 37.8512752 1215.74609375 31.5 Z" stroke-miterlimit="10"/></g><g transform="translate(-10,-10) scale(1,1)"><g><path fill="none" stroke="none"/><text fill="#000000" stroke="none" font-family="Arial" font-size="13px" font-style="normal" font-weight="bold" text-decoration="none" x="1157.158447265625" y="62.5">ItensCompraRepositorio</text></g></g><g transform="translate(-10,-10) scale(1,1)"><path fill="#C0C0C0" stroke="none" d="M 1378.29248046875 38.5 C 1378.29248046875 32.1487248 1383.44120526875 27 1389.79248046875 27 C 1396.14375566875 27 1401.29248046875 32.1487248 1401.29248046875 38.5 C 1401.29248046875 44.8512752 1396.14375566875 50 1389.79248046875 50 C 1383.44120526875 50 1378.29248046875 44.8512752 1378.29248046875 38.5 Z" opacity="0.2"/></g><g transform="translate(-10,-10) scale(1,1)"><path fill="#ffffff" stroke="none" d="M 1371.29248046875 31.5 C 1371.29248046875 25.1487248 1376.44120526875 20 1382.79248046875 20 C 1389.14375566875 20 1394.29248046875 25.1487248 1394.29248046875 31.5 C 1394.29248046875 37.8512752 1389.14375566875 43 1382.79248046875 43 C 1376.44120526875 43 1371.29248046875 37.8512752 1371.29248046875 31.5 Z"/></g><g transform="translate(-10,-10) scale(1,1)"><path fill="none" stroke="#000000" d="M 1371.29248046875 31.5 C 1371.29248046875 25.1487248 1376.44120526875 20 1382.79248046875 20 C 1389.14375566875 20 1394.29248046875 25.1487248 1394.29248046875 31.5 C 1394.29248046875 37.8512752 1389.14375566875 43 1382.79248046875 43 C 1376.44120526875 43 1371.29248046875 37.8512752 1371.29248046875 31.5 Z" stroke-miterlimit="10"/></g><g transform="translate(-10,-10) scale(1,1)"><g><path fill="none" stroke="none"/><text fill="#000000" stroke="none" font-family="Arial" font-size="13px" font-style="normal" font-weight="bold" text-decoration="none" x="1333.290283203125" y="62.5">PapelRepositorio</text></g></g><g transform="translate(-10,-10) scale(1,1)"><path fill="#C0C0C0" stroke="none" d="M 1529.154296875 38.5 C 1529.154296875 32.1487248 1534.303021675 27 1540.654296875 27 C 1547.005572075 27 1552.154296875 32.1487248 1552.154296875 38.5 C 1552.154296875 44.8512752 1547.005572075 50 1540.654296875 50 C 1534.303021675 50 1529.154296875 44.8512752 1529.154296875 38.5 Z" opacity="0.2"/></g><g transform="translate(-10,-10) scale(1,1)"><path fill="#ffffff" stroke="none" d="M 1522.154296875 31.5 C 1522.154296875 25.1487248 1527.303021675 20 1533.654296875 20 C 1540.005572075 20 1545.154296875 25.1487248 1545.154296875 31.5 C 1545.154296875 37.8512752 1540.005572075 43 1533.654296875 43 C 1527.303021675 43 1522.154296875 37.8512752 1522.154296875 31.5 Z"/></g><g transform="translate(-10,-10) scale(1,1)"><path fill="none" stroke="#000000" d="M 1522.154296875 31.5 C 1522.154296875 25.1487248 1527.303021675 20 1533.654296875 20 C 1540.005572075 20 1545.154296875 25.1487248 1545.154296875 31.5 C 1545.154296875 37.8512752 1540.005572075 43 1533.654296875 43 C 1527.303021675 43 1522.154296875 37.8512752 1522.154296875 31.5 Z" stroke-miterlimit="10"/></g><g transform="translate(-10,-10) scale(1,1)"><g><path fill="none" stroke="none"/><text fill="#000000" stroke="none" font-family="Arial" font-size="13px" font-style="normal" font-weight="bold" text-decoration="none" x="1470.072998046875" y="62.5">PermissaoRepositorio</text></g></g><g transform="translate(-10,-10) scale(1,1)"><path fill="#C0C0C0" stroke="none" d="M 1682.494873046875 38.5 C 1682.494873046875 32.1487248 1687.643597846875 27 1693.994873046875 27 C 1700.346148246875 27 1705.494873046875 32.1487248 1705.494873046875 38.5 C 1705.494873046875 44.8512752 1700.346148246875 50 1693.994873046875 50 C 1687.643597846875 50 1682.494873046875 44.8512752 1682.494873046875 38.5 Z" opacity="0.2"/></g><g transform="translate(-10,-10) scale(1,1)"><path fill="#ffffff" stroke="none" d="M 1675.494873046875 31.5 C 1675.494873046875 25.1487248 1680.643597846875 20 1686.994873046875 20 C 1693.346148246875 20 1698.494873046875 25.1487248 1698.494873046875 31.5 C 1698.494873046875 37.8512752 1693.346148246875 43 1686.994873046875 43 C 1680.643597846875 43 1675.494873046875 37.8512752 1675.494873046875 31.5 Z"/></g><g transform="translate(-10,-10) scale(1,1)"><path fill="none" stroke="#000000" d="M 1675.494873046875 31.5 C 1675.494873046875 25.1487248 1680.643597846875 20 1686.994873046875 20 C 1693.346148246875 20 1698.494873046875 25.1487248 1698.494873046875 31.5 C 1698.494873046875 37.8512752 1693.346148246875 43 1686.994873046875 43 C 1680.643597846875 43 1675.494873046875 37.8512752 1675.494873046875 31.5 Z" stroke-miterlimit="10"/></g><g transform="translate(-10,-10) scale(1,1)"><g><path fill="none" stroke="none"/><text fill="#000000" stroke="none" font-family="Arial" font-size="13px" font-style="normal" font-weight="bold" text-decoration="none" x="1631.351318359375" y="62.5">ProdutoRepositorio</text></g></g></g></svg>